<svg width="56" height="56" viewBox="0 0 56 56" fill="none" xmlns="http://www.w3.org/2000/svg">
<path fill-rule="evenodd" clip-rule="evenodd" d="M32.4546 0.929016C32.0717 0.929016 31.7161 1.01397 31.3878 1.12723C32.0853 1.60862 32.4683 2.24575 32.6598 2.96782C32.6735 3.06693 32.7008 3.13772 32.7145 3.23682C32.7282 3.32178 32.7418 3.40673 32.7418 3.49168C32.7966 4.73761 32.4273 4.89335 32.1674 5.62959C31.7708 6.5782 31.8802 7.5976 32.3589 8.41879C32.3999 8.51789 32.4546 8.63116 32.523 8.73027C32.0033 5.1482 34.8891 4.61019 35.4225 3.49168C35.4635 2.51475 34.684 1.86347 34.0685 1.4104C33.4804 1.04228 32.947 0.929016 32.4546 0.929016ZM36.8039 1.73604C36.7492 2.06168 36.7902 1.97673 36.7766 2.14664C36.7629 2.2599 36.7629 2.40149 36.7492 2.51475C36.7219 2.62802 36.6945 2.74128 36.6535 2.85456C36.6261 2.96782 36.5851 3.08109 36.5441 3.19435C36.4893 3.30762 36.4483 3.40673 36.3936 3.51999C36.3526 3.57665 36.3252 3.63326 36.2842 3.6899C36.2569 3.73237 36.2295 3.77485 36.2021 3.81732C36.1338 3.91643 36.0654 4.01554 35.997 4.10049C35.9149 4.18544 35.8465 4.28454 35.7508 4.35534V4.36952C35.6687 4.44031 35.5867 4.52526 35.4909 4.59605C35.2037 4.82258 34.8755 4.99248 34.5746 5.20486C34.4788 5.27565 34.3831 5.33228 34.301 5.41723C34.2053 5.48802 34.1232 5.55881 34.0412 5.64377C33.9454 5.72871 33.8771 5.81367 33.795 5.91278C33.7266 5.99773 33.6446 6.09683 33.5898 6.19594C33.5215 6.29505 33.4531 6.39416 33.3984 6.49327C33.3436 6.60653 33.3026 6.70564 33.2479 6.81891C33.2069 6.93217 33.1659 7.03128 33.1385 7.14455C33.0975 7.27197 33.0701 7.38524 33.0428 7.49851C33.0291 7.55517 33.0291 7.62593 33.0154 7.68257C33.0017 7.73922 33.0017 7.79583 32.9881 7.85247C32.9881 7.96573 32.9744 8.09316 32.9744 8.20642C32.9744 8.29138 32.9744 8.37633 32.9881 8.46128C32.9881 8.57454 33.0018 8.68781 33.0291 8.81523C33.0428 8.9285 33.0702 9.04177 33.0975 9.15504C33.1385 9.2683 33.1659 9.38157 33.2069 9.49483C33.2343 9.56563 33.2753 9.63642 33.3027 9.69305L30.157 8.43296C29.6236 8.27722 29.1038 8.13564 28.5704 8.00821C28.2832 7.93742 27.996 7.86663 27.7088 7.79583C26.8882 7.62593 26.0539 7.49851 25.2196 7.41356C25.1923 7.41356 25.1786 7.39938 25.1512 7.39938C24.3306 7.31444 23.5236 7.27196 22.703 7.27196C22.1012 7.27196 21.4994 7.30025 20.9113 7.34275C20.077 7.39941 19.2427 7.51265 18.4085 7.65423C18.2033 7.68253 17.9981 7.72503 17.793 7.7675C17.369 7.85245 16.9587 7.95156 16.5621 8.05067C16.3569 8.10733 16.1518 8.16394 15.9466 8.22057C15.7414 8.30552 15.55 8.40463 15.3585 8.48958C15.208 8.56037 15.0576 8.63116 14.9072 8.70195C14.8798 8.71613 14.8524 8.71613 14.8388 8.73025C14.702 8.80104 14.5789 8.85767 14.4558 8.92847C14.4148 8.94264 14.3874 8.95676 14.3601 8.97094C14.2096 9.04173 14.0592 9.12668 13.9361 9.19747C13.8403 9.23995 13.7446 9.29658 13.6625 9.33906C13.6215 9.36735 13.5668 9.39571 13.5395 9.40985C13.4164 9.48064 13.2933 9.55143 13.1839 9.62223C13.0608 9.69302 12.9513 9.7638 12.8556 9.83459C12.7599 9.90539 12.6641 9.96202 12.5821 10.0328C12.5684 10.047 12.5547 10.047 12.541 10.0611C12.459 10.1178 12.3632 10.1885 12.2812 10.2593C12.2812 10.2593 12.2675 10.2735 12.2538 10.2876C12.1855 10.3443 12.1171 10.4009 12.0487 10.4575C12.0214 10.4717 11.994 10.5 11.9666 10.5142C11.8982 10.5708 11.8299 10.6416 11.7615 10.6982C11.7478 10.7265 11.7204 10.7407 11.7067 10.7549C11.6247 10.8398 11.5426 10.9106 11.4606 10.9956C11.4469 10.9956 11.4469 11.0098 11.4332 11.0239C11.3512 11.0947 11.2691 11.1796 11.187 11.2646C11.1733 11.2787 11.1733 11.2929 11.1597 11.2929C11.0913 11.3637 11.0229 11.4345 10.9545 11.5194C10.9272 11.5477 10.8862 11.5761 10.8588 11.6043C10.7904 11.6893 10.7084 11.7742 10.6263 11.8592C10.6126 11.8875 10.5853 11.9017 10.5716 11.93C10.4622 12.0433 10.3664 12.1565 10.257 12.2698C10.2433 12.284 10.2297 12.2981 10.216 12.3123C9.99714 12.553 9.76463 12.7936 9.51845 13.006C9.27226 13.2326 9.0124 13.4449 8.75254 13.629C8.479 13.8272 8.21914 13.9971 7.93192 14.167C7.65838 14.3227 7.37116 14.4643 7.07027 14.5918C6.78305 14.7192 6.48216 14.8325 6.18127 14.9316C5.60684 15.059 5.01873 15.2997 4.51268 15.3421C4.40326 15.3421 4.28017 15.3704 4.17076 15.3846C4.04766 15.4129 3.93825 15.4413 3.82883 15.4696C3.71942 15.512 3.61 15.5545 3.50058 15.597C3.39117 15.6395 3.28176 15.6961 3.17234 15.7527C3.0766 15.8235 2.96719 15.8802 2.87144 15.951C2.77571 16.0217 2.67997 16.1067 2.5979 16.1916C2.50217 16.2624 2.40643 16.3616 2.32436 16.4465C2.2423 16.5456 2.16024 16.6306 2.09186 16.7297C2.02347 16.8429 1.94141 16.942 1.8867 17.0553C1.81832 17.1544 1.74993 17.2677 1.69522 17.3809C1.64049 17.5084 1.58581 17.6216 1.54478 17.7491C1.50375 17.8623 1.46272 17.9898 1.42169 18.1172C1.39435 18.2305 1.36696 18.3437 1.3533 18.457C1.3533 18.4712 1.3396 18.4853 1.3396 18.4995C1.31227 18.6269 1.31227 18.7968 1.29857 18.8817C1.28487 18.9809 1.27124 19.0658 1.27124 19.1649C1.27124 19.2216 1.27124 19.2923 1.28494 19.349C1.29864 19.4481 1.31227 19.533 1.33967 19.618C1.367 19.7029 1.3944 19.7879 1.4354 19.8728V19.887C1.47643 19.972 1.53114 20.0569 1.58585 20.1419C1.64058 20.2268 1.69527 20.3118 1.76365 20.3967C1.83204 20.4675 1.9141 20.5524 1.99616 20.6232C2.07822 20.7082 2.16029 20.779 2.25602 20.8498C2.58427 21.1471 2.66633 21.2462 3.09032 21.4727C3.1587 21.5152 3.22709 21.5435 3.30915 21.586C3.32285 21.586 3.33649 21.6002 3.35018 21.6002C3.35018 21.6285 3.35018 21.6427 3.36388 21.671C3.37758 21.7843 3.40491 21.8975 3.43227 22.0108C3.4596 22.1382 3.50066 22.2515 3.54169 22.3506C3.58272 22.4355 3.61007 22.5205 3.6511 22.6054C3.6648 22.6337 3.67844 22.6621 3.69213 22.6762C3.74686 22.7895 3.80155 22.8886 3.85625 22.9877C3.92464 23.0868 3.99302 23.1859 4.06141 23.285C4.12979 23.37 4.21185 23.4691 4.29392 23.554C4.37598 23.639 4.45804 23.7098 4.55378 23.7947C4.55378 23.7947 4.56748 23.8089 4.58111 23.8089C4.66318 23.8797 4.74524 23.9505 4.8273 24.0071C4.92304 24.0779 5.01878 24.1346 5.12819 24.1912C5.22393 24.2479 5.33335 24.3045 5.44276 24.3469C5.52483 24.3894 5.62056 24.4177 5.7163 24.4461C5.73 24.4603 5.74363 24.4603 5.77103 24.4744C5.82576 24.4886 5.89412 24.5026 5.94883 24.5168C5.9078 25.2814 5.8941 26.0034 6.00356 26.2583C6.12665 26.5415 6.72844 25.6778 7.33022 24.6867C7.24816 25.6637 7.19345 26.8105 7.33022 27.1503C7.48067 27.5042 8.30129 26.3999 9.01249 25.1823C18.7095 22.8603 27.5585 29.7979 28.4885 39.5955C28.3107 38.0664 26.4916 37.2169 25.6574 37.4292C25.247 38.477 24.5495 39.822 23.428 40.6573C23.5238 39.7229 23.4827 38.7601 23.2912 37.8257C22.9904 39.1282 22.4022 40.3459 21.5953 41.3936C20.296 41.4927 18.9967 40.8414 18.3128 39.8645C18.2581 39.822 18.2444 39.737 18.2034 39.6804C18.1624 39.5813 18.1213 39.4822 18.094 39.3831C18.053 39.284 18.0256 39.1849 18.0119 39.0858C17.9982 38.9867 17.9982 38.8875 17.9982 38.7743C17.9982 38.7035 17.9982 38.6327 17.9982 38.5619C18.0119 38.4628 18.0393 38.3637 18.0666 38.2646C18.0939 38.1655 18.1213 38.0664 18.1624 37.9673C18.2171 37.8681 18.2581 37.769 18.3265 37.6699C18.559 36.9903 18.559 36.4382 18.135 36.1125C18.0529 36.0559 17.9709 36.0134 17.8751 35.9709C17.8204 35.9567 17.752 35.9284 17.6973 35.9143C17.6563 35.9001 17.629 35.886 17.5879 35.8718C17.4922 35.8435 17.3964 35.8151 17.3007 35.801C17.205 35.7727 17.1092 35.7585 17.0135 35.7585C16.9178 35.7443 16.8083 35.7302 16.7126 35.7302C16.6442 35.7302 16.5758 35.7444 16.5074 35.7444C16.398 35.7444 16.3023 35.7586 16.2065 35.7869C16.1108 35.8011 16.0151 35.8152 15.9193 35.8435C15.8236 35.8718 15.7279 35.9002 15.6321 35.9427C15.5364 35.9851 15.4543 36.0276 15.3586 36.0701C15.2765 36.1126 15.1945 36.1692 15.0987 36.2117C11.912 38.3637 13.8131 43.4041 15.9877 44.8624C15.1671 45.0181 14.3328 45.2022 14.1003 45.3863C14.0866 45.4004 14.073 45.4146 14.073 45.4146C14.6611 45.7827 15.2765 46.0942 15.9193 46.3632C16.7947 46.6605 17.7247 46.9295 18.135 47.0428V47.0569C19.2702 47.2976 20.4191 47.3826 21.5816 47.3118C27.6405 46.8729 32.6053 42.1015 33.5079 35.8152C33.5353 35.9426 33.5627 36.0559 33.59 36.1833C33.631 36.4382 33.6857 36.7072 33.7131 36.9762V36.9904C33.7404 37.1178 33.7541 37.2452 33.7678 37.3585V37.4152C33.7815 37.5426 33.7951 37.67 33.7951 37.7833C33.8088 37.939 33.8225 38.0948 33.8225 38.2505V38.477C33.8225 38.5478 33.8362 38.6328 33.8362 38.7036C33.8362 38.7885 33.8225 38.8735 33.8225 38.9584V39.1566C33.8225 39.2558 33.8088 39.3407 33.8088 39.4398C33.8088 39.4965 33.8088 39.5531 33.7951 39.6239C33.7951 39.723 33.7814 39.8221 33.7814 39.9354C33.7677 39.9778 33.7677 40.0203 33.7677 40.0628C33.754 40.1761 33.7403 40.2752 33.7266 40.3884C33.7266 40.4309 33.7266 40.4734 33.7129 40.5159C33.6992 40.6574 33.6719 40.7849 33.6582 40.9264V40.9406V40.9548C33.6309 41.0822 33.6035 41.2238 33.5761 41.3512V41.3937C33.5488 41.5211 33.5214 41.6486 33.4941 41.776C33.4941 41.7902 33.4804 41.8185 33.4804 41.8326C33.4531 41.9601 33.4257 42.0875 33.3847 42.2149V42.2574C33.3436 42.399 33.3026 42.5264 33.2752 42.6538C33.2615 42.668 33.2615 42.6821 33.2615 42.6821C33.2205 42.8237 33.1795 42.9653 33.1385 43.1069C33.0837 43.2485 33.0427 43.3759 32.988 43.5175C32.9333 43.6591 32.8923 43.8006 32.8376 43.9281C32.7828 44.0697 32.7281 44.1971 32.6734 44.3387H32.6597C32.605 44.4661 32.5503 44.6077 32.4819 44.7351C32.4682 44.7776 32.4546 44.8059 32.4409 44.8342C32.4272 44.8484 32.4272 44.8625 32.4136 44.8767C31.5246 46.7314 30.2116 48.3596 28.5703 49.6339C28.4609 49.7047 28.3515 49.7896 28.2421 49.8746C28.2147 49.9029 28.1737 49.917 28.1463 49.9454C28.0506 50.0161 27.9549 50.0869 27.8455 50.1577L27.8865 50.2427H27.9002C28.0916 50.2144 28.2831 50.186 28.4746 50.1577H28.4883C28.8439 50.1011 29.1995 50.0303 29.5551 49.9595C29.6508 49.9453 29.7603 49.917 29.856 49.8887C29.9244 49.8745 29.9791 49.8604 30.0475 49.8463C30.1432 49.8321 30.239 49.8038 30.3347 49.7896C30.4168 49.7613 30.4988 49.7471 30.5809 49.7188C31.9486 49.379 33.2752 48.9118 34.5472 48.3596C32.3726 51.432 29.4594 53.9097 26.0538 55.5379C27.6267 55.4246 29.1995 55.1556 30.7176 54.7025C36.2295 53.0177 40.866 49.1808 43.6424 44.013C43.0816 47.2836 41.8233 50.3984 39.9633 53.1168C41.2899 52.2107 42.5072 51.1629 43.615 49.9736C46.6787 46.6606 48.6892 42.4556 49.373 37.9391C49.838 40.1761 49.9748 42.4839 49.7697 44.7634C59.6444 30.5059 50.5903 15.7246 46.8018 11.8311C46.788 11.8028 46.7744 11.7886 46.7744 11.7603C46.7607 11.7745 46.7607 11.7745 46.7607 11.7886C46.7607 11.7744 46.7607 11.7744 46.747 11.7603C46.747 11.9302 46.7333 12.1001 46.7197 12.27C46.6786 12.5956 46.6376 12.9071 46.5829 13.2186C46.5145 13.5301 46.4325 13.8415 46.3504 14.153C46.2547 14.4504 46.1453 14.7618 46.0222 15.0592C45.8991 15.3423 45.7623 15.6397 45.6118 15.9228C45.4614 16.1918 45.2973 16.475 45.1195 16.7299C44.9417 16.9989 44.7502 17.2537 44.5587 17.4944C44.3536 17.7493 44.1347 17.9758 43.9159 18.2023C43.7791 18.3297 43.656 18.443 43.5193 18.5563C43.4099 18.6554 43.3141 18.7403 43.2047 18.8394C42.9585 19.0377 42.7123 19.2217 42.4388 19.3916C42.1789 19.5615 41.9054 19.7314 41.6319 19.873C41.3446 20.0146 41.0574 20.142 40.7702 20.2694C40.483 20.3827 40.1821 20.4818 39.8812 20.5668C39.5803 20.6517 39.2657 20.7225 38.9648 20.7791C38.6503 20.8358 38.3357 20.8641 38.0348 20.8924C37.816 20.9066 37.5972 20.9207 37.3783 20.9207C37.0637 20.9207 36.7492 20.8924 36.4483 20.8641C36.1337 20.8358 35.8191 20.7933 35.5183 20.7225C35.2037 20.6658 34.9028 20.5809 34.6019 20.4818H34.5882C34.8891 20.4535 35.19 20.4251 35.4909 20.3685C35.8054 20.3118 36.1063 20.2411 36.4072 20.1561C36.7081 20.0712 37.009 19.9721 37.2962 19.8588C37.5971 19.7455 37.8843 19.604 38.1579 19.4624C38.4451 19.3208 38.705 19.165 38.9785 18.9951C39.2384 18.8111 39.4982 18.627 39.7444 18.4288C39.9906 18.2306 40.2231 18.0182 40.4419 17.7917C40.6744 17.5793 40.8796 17.3386 41.0848 17.0979C41.2899 16.8431 41.4814 16.5882 41.6592 16.3334C41.6865 16.2909 41.7139 16.2343 41.7413 16.1918C41.878 15.9653 42.0148 15.7387 42.1379 15.5122C42.2883 15.229 42.4251 14.9459 42.5482 14.6485C42.6713 14.3512 42.7807 14.0539 42.8764 13.7424C42.9722 13.4451 43.0406 13.1336 43.1089 12.8221C43.1637 12.4965 43.2184 12.185 43.2457 11.8735C43.273 11.5479 43.3004 11.2222 43.3004 10.9107C43.3004 10.6842 43.2867 10.4577 43.2731 10.2311C43.2458 9.90549 43.2047 9.594 43.1637 9.28252C43.109 8.95688 43.0406 8.6454 42.9585 8.33391C42.8628 8.03659 42.7671 7.7251 42.6577 7.42778C42.5482 7.13045 42.4115 6.83312 42.2747 6.54996C42.1242 6.26679 41.9738 5.98362 41.8097 5.71462C41.6319 5.44561 41.4541 5.19076 41.2626 4.93591C41.0574 4.69521 40.8523 4.45452 40.6335 4.21383C40.524 4.10057 40.4009 3.97314 40.2779 3.85988C39.6624 3.36433 39.0196 2.8971 38.3768 2.47236C38.281 2.4157 38.199 2.37325 38.1032 2.33077C37.6519 2.03345 37.2279 1.87762 36.8039 1.73604Z" fill="black"/>
</svg>
