<svg width="36" height="26" viewBox="0 0 36 26" fill="none" xmlns="http://www.w3.org/2000/svg">
<path d="M22.1147 17.9176C23.1911 19.666 24.3609 21.3414 26.8389 21.3414C28.9202 21.3414 30.0122 20.3069 30.0122 18.8758C30.0122 17.1631 28.8829 16.5549 26.5931 15.5578L25.3378 15.0227C21.7149 13.4858 19.3053 11.56 19.3053 7.49225C19.3053 3.74336 22.1753 0.890471 26.66 0.890471C29.8536 0.890471 32.148 1.99647 33.8031 4.89292L29.8924 7.39269C29.0322 5.8558 28.102 5.2507 26.66 5.2507C25.1884 5.2507 24.2567 6.17936 24.2567 7.39269C24.2567 8.89225 25.19 9.49892 27.3445 10.4276L28.5998 10.9627C32.8698 12.7811 35.2778 14.6385 35.2778 18.8136C35.2778 23.3122 31.7249 25.7778 26.9556 25.7778C22.2905 25.7778 19.6413 23.4367 18.1667 20.5387L22.1147 17.9176ZM4.092 18.0451C4.87912 19.4545 6.07534 20.5387 7.79578 20.5387C9.44156 20.5387 10.3889 19.8885 10.3889 17.3607V0.888916H15.5736V18.1571C15.5736 23.3947 12.5356 25.7778 8.09912 25.7778C4.09045 25.7778 1.19712 23.0618 0.0180054 20.5387L4.092 18.0451Z" fill="black"/>
</svg>
