<svg width="58" height="58" viewBox="0 0 58 58" fill="none" xmlns="http://www.w3.org/2000/svg">
<rect x="1" y="1" width="56" height="56" rx="4" stroke="black" stroke-width="2"/>
<path d="M27.2401 27.39C26.6701 27.39 26.2201 27.89 26.2201 28.5C26.2201 29.11 26.6801 29.61 27.2401 29.61C27.8101 29.61 28.2601 29.11 28.2601 28.5C28.2701 27.89 27.8101 27.39 27.2401 27.39ZM30.8901 27.39C30.3201 27.39 29.8701 27.89 29.8701 28.5C29.8701 29.11 30.3301 29.61 30.8901 29.61C31.4601 29.61 31.9101 29.11 31.9101 28.5C31.9101 27.89 31.4601 27.39 30.8901 27.39Z" fill="black"/>
<path d="M35.75 19H22.35C21.22 19 20.3 19.92 20.3 21.06V34.58C20.3 35.72 21.22 36.64 22.35 36.64H33.69L33.16 34.79L34.44 35.98L35.65 37.1L37.8 39V21.06C37.8 19.92 36.88 19 35.75 19ZM31.89 32.06C31.89 32.06 31.53 31.63 31.23 31.25C32.54 30.88 33.04 30.06 33.04 30.06C32.63 30.33 32.24 30.52 31.89 30.65C31.39 30.86 30.91 31 30.44 31.08C29.48 31.26 28.6 31.21 27.85 31.07C27.28 30.96 26.79 30.8 26.38 30.64C26.15 30.55 25.9 30.44 25.65 30.3C25.62 30.28 25.59 30.27 25.56 30.25C25.54 30.24 25.53 30.23 25.52 30.22C25.34 30.12 25.24 30.05 25.24 30.05C25.24 30.05 25.72 30.85 26.99 31.23C26.69 31.61 26.32 32.06 26.32 32.06C24.11 31.99 23.27 30.54 23.27 30.54C23.27 27.32 24.71 24.71 24.71 24.71C26.15 23.63 27.52 23.66 27.52 23.66L27.62 23.78C25.82 24.3 24.99 25.09 24.99 25.09C24.99 25.09 25.21 24.97 25.58 24.8C26.65 24.33 27.5 24.2 27.85 24.17C27.91 24.16 27.96 24.15 28.02 24.15C28.63 24.07 29.32 24.05 30.04 24.13C30.99 24.24 32.01 24.52 33.05 25.09C33.05 25.09 32.26 24.34 30.5601 23.82L30.7 23.66C30.7 23.66 32.07 23.63 33.51 24.71C33.51 24.71 34.95 27.32 34.95 30.54C34.95 30.54 34.1 31.99 31.89 32.06Z" fill="black"/>
</svg>
