<svg width="58" height="58" viewBox="0 0 58 58" fill="none" xmlns="http://www.w3.org/2000/svg">
<rect x="1" y="1" width="56" height="56" rx="4" stroke="black" stroke-width="2"/>
<path d="M25.2918 37.125C32.8371 37.125 36.9652 30.8723 36.9652 25.4516C36.9652 25.2758 36.9613 25.0961 36.9535 24.9204C37.7566 24.3396 38.4496 23.6203 39 22.7961C38.2521 23.1289 37.458 23.3462 36.6449 23.4407C37.5011 22.9275 38.1421 22.1213 38.4492 21.1715C37.6438 21.6489 36.763 21.9856 35.8445 22.1672C35.2257 21.5097 34.4075 21.0743 33.5164 20.9284C32.6253 20.7825 31.711 20.9343 30.9148 21.3601C30.1186 21.786 29.4848 22.4623 29.1115 23.2845C28.7382 24.1067 28.6462 25.0289 28.8496 25.9086C27.2187 25.8268 25.6233 25.4031 24.1667 24.6651C22.71 23.9271 21.4247 22.8913 20.3941 21.6247C19.8703 22.5278 19.71 23.5964 19.9459 24.6135C20.1817 25.6305 20.7959 26.5196 21.6637 27.1C21.0122 27.0794 20.375 26.904 19.8047 26.5883V26.6391C19.8041 27.5869 20.1317 28.5055 20.7319 29.239C21.3321 29.9725 22.1678 30.4755 23.0969 30.6625C22.4934 30.8277 21.86 30.8517 21.2457 30.7329C21.5079 31.5479 22.018 32.2608 22.7048 32.772C23.3916 33.2832 24.2209 33.5672 25.077 33.5844C23.6237 34.726 21.8285 35.3452 19.9805 35.3422C19.6527 35.3417 19.3253 35.3216 19 35.2821C20.8774 36.4865 23.0613 37.1262 25.2918 37.125Z" fill="black"/>
</svg>
